# xmcd
#
# Track frame offsets:
#	150
#	9013
#	22007
#	33624
#	48126
#	63114
#	73408
#	85945
#	100150
#	117588
#	136097
#	146988
#	162028
#
# Disc length: 2306 seconds
#
# Revision: 1
# Processed by: cddbd v1.5.2PL0 Copyright (c) Steve Scherf et al.
# Submitted via: audiograbber 1.83.01
#
DISCID=ac09000d
DTITLE=Noel Cassidy - I'm Layin' It On The Line
DYEAR=1900
DGENRE=
TTITLE0=I'm Layin' It On The Line
TTITLE1=My Native Town Drumlish
TTITLE2=Before I Met You
TTITLE3=Snakes Crawl At Night
TTITLE4=Proud Mary
TTITLE5=Second Fiddle
TTITLE6=Truck Drivin' Man
TTITLE7=Johnny Thompson
TTITLE8=Union Mare And Confederate Grey
TTITLE9=Long, Long Before Your Time
TTITLE10=Going Out The Same Way You Came In
TTITLE11=Amanda
TTITLE12=Here I Am Drunk Again
EXTD=
EXTT0=
EXTT1=
EXTT2=
EXTT3=
EXTT4=
EXTT5=
EXTT6=
EXTT7=
EXTT8=
EXTT9=
EXTT10=
EXTT11=
EXTT12=
PLAYORDER=
